<?xml version="1.0" encoding="UTF-8" standalone="no"?>
<!DOCTYPE svg PUBLIC "-//W3C//DTD SVG 1.1//EN"
 "http://www.w3.org/Graphics/SVG/1.1/DTD/svg11.dtd">
<!-- Generated by graphviz version 2.50.0 (0)
 -->
<!-- Pages: 1 -->
<svg width="1050pt" height="252pt"
 viewBox="0.00 0.00 1049.79 251.66" xmlns="http://www.w3.org/2000/svg" xmlns:xlink="http://www.w3.org/1999/xlink">
<g id="graph0" class="graph" transform="scale(1 1) rotate(0) translate(4 247.66)">
<polygon fill="white" stroke="transparent" points="-4,4 -4,-247.66 1045.79,-247.66 1045.79,4 -4,4"/>
<!-- BS AS -->
<g id="node1" class="node">
<title>BS AS</title>
<ellipse fill="none" stroke="green" cx="39.65" cy="-41.66" rx="39.79" ry="18"/>
<text text-anchor="middle" x="39.65" y="-37.96" font-family="Times,serif" font-size="14.00">BS AS</text>
</g>
<!-- RIO -->
<g id="node3" class="node">
<title>RIO</title>
<ellipse fill="none" stroke="black" cx="346.29" cy="-96.66" rx="28.7" ry="18"/>
<text text-anchor="middle" x="346.29" y="-92.96" font-family="Times,serif" font-size="14.00">RIO</text>
</g>
<!-- BS AS&#45;&gt;RIO -->
<g id="edge4" class="edge">
<title>BS AS&#45;&gt;RIO</title>
<path fill="none" stroke="black" d="M61.65,-56.89C71.9,-63.51 84.71,-70.66 97.29,-74.66 169.05,-97.49 258,-99.44 307.5,-98.35"/>
<polygon fill="black" stroke="black" points="307.84,-101.84 317.74,-98.07 307.65,-94.85 307.84,-101.84"/>
<text text-anchor="middle" x="174.29" y="-101.46" font-family="Times,serif" font-size="14.00">capacidad: 2, costo: 1</text>
</g>
<!-- MADRID -->
<g id="node4" class="node">
<title>MADRID</title>
<ellipse fill="none" stroke="black" cx="690.29" cy="-96.66" rx="51.19" ry="18"/>
<text text-anchor="middle" x="690.29" y="-92.96" font-family="Times,serif" font-size="14.00">MADRID</text>
</g>
<!-- BS AS&#45;&gt;MADRID -->
<g id="edge5" class="edge">
<title>BS AS&#45;&gt;MADRID</title>
<path fill="none" stroke="black" d="M78.84,-38.73C169.59,-32.72 404.79,-22.68 595.29,-62.66 613.01,-66.38 631.91,-72.72 648.07,-78.92"/>
<polygon fill="black" stroke="black" points="647.16,-82.32 657.75,-82.74 649.73,-75.81 647.16,-82.32"/>
<text text-anchor="middle" x="346.29" y="-42.46" font-family="Times,serif" font-size="14.00">capacidad: 4, costo: 1</text>
</g>
<!-- QATAR -->
<g id="node2" class="node">
<title>QATAR</title>
<ellipse fill="none" stroke="green" cx="999.54" cy="-149.66" rx="42.49" ry="18"/>
<text text-anchor="middle" x="999.54" y="-145.96" font-family="Times,serif" font-size="14.00">QATAR</text>
</g>
<!-- QATAR&#45;&gt;MADRID -->
<g id="edge11" class="edge">
<title>QATAR&#45;&gt;MADRID</title>
<path fill="none" stroke="red" d="M986.19,-132.31C975.52,-118.91 958.76,-101.41 939.29,-93.66 875.53,-68.3 795.04,-75.68 743.36,-84.86"/>
<polygon fill="red" stroke="red" points="742.61,-81.44 733.42,-86.72 743.9,-88.32 742.61,-81.44"/>
<text text-anchor="middle" x="862.29" y="-97.46" font-family="Times,serif" font-size="14.00">6</text>
</g>
<!-- RIO&#45;&gt;BS AS -->
<g id="edge7" class="edge">
<title>RIO&#45;&gt;BS AS</title>
<path fill="none" stroke="red" d="M324.38,-85.03C305.8,-75.32 277.59,-62.07 251.29,-55.66 197.01,-42.45 132.69,-40.01 89.53,-40.19"/>
<polygon fill="red" stroke="red" points="89.27,-36.7 79.3,-40.29 89.33,-43.7 89.27,-36.7"/>
<text text-anchor="middle" x="174.29" y="-59.46" font-family="Times,serif" font-size="14.00">2</text>
</g>
<!-- RIO&#45;&gt;QATAR -->
<g id="edge1" class="edge">
<title>RIO&#45;&gt;QATAR</title>
<path fill="none" stroke="black" d="M359.53,-112.63C375.74,-132.36 406.41,-165 441.29,-178.66 647.39,-259.36 724.42,-231.73 939.29,-178.66 948.18,-176.47 957.29,-172.82 965.62,-168.83"/>
<polygon fill="black" stroke="black" points="967.31,-171.9 974.64,-164.26 964.14,-165.66 967.31,-171.9"/>
<text text-anchor="middle" x="690.29" y="-232.46" font-family="Times,serif" font-size="14.00">capacidad: 1, costo: 4</text>
</g>
<!-- RIO&#45;&gt;QATAR -->
<g id="edge8" class="edge">
<title>RIO&#45;&gt;QATAR</title>
<path fill="none" stroke="red" d="M368.62,-108.05C387.22,-117.35 415.25,-129.88 441.29,-135.66 624.47,-176.32 849.83,-163.42 948.4,-154.77"/>
<polygon fill="red" stroke="red" points="948.73,-158.26 958.38,-153.87 948.1,-151.28 948.73,-158.26"/>
<text text-anchor="middle" x="690.29" y="-167.46" font-family="Times,serif" font-size="14.00">1</text>
</g>
<!-- RIO&#45;&gt;MADRID -->
<g id="edge2" class="edge">
<title>RIO&#45;&gt;MADRID</title>
<path fill="none" stroke="black" d="M373.48,-102.34C392.25,-106.11 418.2,-110.71 441.29,-112.66 509.49,-118.43 527.09,-118.43 595.29,-112.66 608.31,-111.56 622.23,-109.62 635.27,-107.46"/>
<polygon fill="black" stroke="black" points="636.24,-110.85 645.49,-105.69 635.04,-103.95 636.24,-110.85"/>
<text text-anchor="middle" x="518.29" y="-120.46" font-family="Times,serif" font-size="14.00">capacidad: 3, costo: 1</text>
</g>
<!-- RIO&#45;&gt;MADRID -->
<g id="edge6" class="edge">
<title>RIO&#45;&gt;MADRID</title>
<path fill="none" stroke="red" d="M374.85,-95.55C393.58,-94.85 418.93,-94.02 441.29,-93.66 509.73,-92.57 526.86,-92.57 595.29,-93.66 606.17,-93.84 617.75,-94.12 628.93,-94.45"/>
<polygon fill="red" stroke="red" points="628.95,-97.95 639.05,-94.76 629.17,-90.96 628.95,-97.95"/>
<text text-anchor="middle" x="518.29" y="-97.46" font-family="Times,serif" font-size="14.00">1</text>
</g>
<!-- MADRID&#45;&gt;BS AS -->
<g id="edge9" class="edge">
<title>MADRID&#45;&gt;BS AS</title>
<path fill="none" stroke="red" d="M669.04,-80.01C650.89,-66.03 622.93,-46.77 595.29,-36.66 415.75,28.98 181.14,-10.19 84.83,-31.09"/>
<polygon fill="red" stroke="red" points="83.87,-27.72 74.86,-33.3 85.38,-34.55 83.87,-27.72"/>
<text text-anchor="middle" x="346.29" y="-6.46" font-family="Times,serif" font-size="14.00">4</text>
</g>
<!-- MADRID&#45;&gt;QATAR -->
<g id="edge3" class="edge">
<title>MADRID&#45;&gt;QATAR</title>
<path fill="none" stroke="black" d="M736.68,-104.58C752.1,-107.22 769.44,-110.13 785.29,-112.66 853.63,-123.58 871.34,-122.58 939.29,-135.66 943.67,-136.51 948.22,-137.45 952.76,-138.44"/>
<polygon fill="black" stroke="black" points="952.09,-141.88 962.61,-140.67 953.63,-135.05 952.09,-141.88"/>
<text text-anchor="middle" x="862.29" y="-139.46" font-family="Times,serif" font-size="14.00">capacidad: 6, costo: 1</text>
</g>
<!-- MADRID&#45;&gt;RIO -->
<g id="edge10" class="edge">
<title>MADRID&#45;&gt;RIO</title>
<path fill="none" stroke="red" d="M650.8,-85.03C633.94,-80.52 613.81,-75.9 595.29,-73.66 527.34,-65.47 509.25,-65.47 441.29,-73.66 421.35,-76.07 399.54,-81.24 381.95,-86.07"/>
<polygon fill="red" stroke="red" points="380.79,-82.76 372.13,-88.86 382.7,-89.5 380.79,-82.76"/>
<text text-anchor="middle" x="518.29" y="-77.46" font-family="Times,serif" font-size="14.00">2</text>
</g>
</g>
</svg>
